<svg width="32" height="32" viewBox="0 0 32 32" fill="none" xmlns="http://www.w3.org/2000/svg">
<path d="M15.2931 8.92891L17.768 6.45403C18.2786 5.94292 18.8849 5.53742 19.5523 5.26071C20.2197 4.98399 20.9351 4.84148 21.6576 4.84131C22.3801 4.84114 23.0955 4.98332 23.763 5.25973C24.4305 5.53613 25.0371 5.94135 25.5479 6.45222C26.0588 6.9631 26.464 7.56962 26.7404 8.23714C27.0168 8.90466 27.159 9.6201 27.1589 10.3426C27.1587 11.0651 27.0162 11.7804 26.7395 12.4478C26.4627 13.1152 26.0572 13.7216 25.5461 14.2322L22.0106 17.7677C21.4999 18.2785 20.8936 18.6836 20.2263 18.96C19.559 19.2364 18.8438 19.3787 18.1215 19.3787C17.3992 19.3787 16.684 19.2364 16.0167 18.96C15.3495 18.6836 14.7431 18.2785 14.2324 17.7677" stroke="#B3B3B3" stroke-width="2.5" stroke-linecap="round" stroke-linejoin="round"/>
<path d="M16.7071 23.0708L14.2322 25.5457C13.7216 26.0568 13.1152 26.4623 12.4478 26.739C11.7804 27.0158 11.0651 27.1583 10.3426 27.1584C9.6201 27.1586 8.90466 27.0164 8.23714 26.74C7.56962 26.4636 6.9631 26.0584 6.45222 25.5475C5.94135 25.0367 5.53613 24.4301 5.25973 23.7626C4.98332 23.0951 4.84114 22.3796 4.84131 21.6572C4.84148 20.9347 4.98399 20.2193 5.26071 19.5519C5.53742 18.8845 5.94292 18.2782 6.45403 17.7675L9.98957 14.232C10.5003 13.7213 11.1066 13.3162 11.7739 13.0398C12.4412 12.7634 13.1564 12.6211 13.8787 12.6211C14.6009 12.6211 15.3161 12.7634 15.9834 13.0398C16.6507 13.3162 17.257 13.7213 17.7677 14.232" stroke="#B3B3B3" stroke-width="2.5" stroke-linecap="round" stroke-linejoin="round"/>
</svg>
